{
  "accessors": [
    {
      "bufferView": 1,
      "componentType": 5126,
      "count": 1101,
      "max": [
        1.3650799989700317,
        1.3429299592971802,
        0.11744000017642975
      ],
      "min": [
        -1.318809986114502,
        -1.3931900262832642,
        -0.17313000559806824
      ],
      "type": "VEC3"
    },
    {
      "bufferView": 1,
      "byteOffset": 13212,
      "componentType": 5126,
      "count": 1101,
      "max": [
        0.92286312580108643,
        0.98573517799377441,
        0.99995976686477661
      ],
      "min": [
        -0.98883795738220215,
        -0.97951197624206543,
        -0.36537235975265503
      ],
      "type": "VEC3"
    },
    {
      "bufferView": 0,
      "componentType": 5125,
      "count": 1101,
      "max": [
        1100
      ],
      "min": [
        0
      ],
      "type": "SCALAR"
    },
    {
      "bufferView": 1,
      "byteOffset": 26424,
      "componentType": 5126,
      "count": 1185,
      "max": [
        1.3650799989700317,
        1.3429299592971802,
        -0.097680002450942993
      ],
      "min": [
        -1.318809986114502,
        -1.3931900262832642,
        -1.7478100061416626
      ],
      "type": "VEC3"
    },
    {
      "bufferView": 1,
      "byteOffset": 40644,
      "componentType": 5126,
      "count": 1185,
      "max": [
        0.9740331768989563,
        0.99849188327789307,
        0.72189152240753174
      ],
      "min": [
        -0.99763047695159912,
        -0.99512118101119995,
        -0.99941354990005493
      ],
      "type": "VEC3"
    },
    {
      "bufferView": 0,
      "byteOffset": 4404,
      "componentType": 5125,
      "count": 1185,
      "max": [
        1184
      ],
      "min": [
        0
      ],
      "type": "SCALAR"
    },
    {
      "bufferView": 1,
      "byteOffset": 54864,
      "componentType": 5126,
      "count": 2568,
      "max": [
        2.952239990234375,
        3.5436899662017822,
        4.4026999473571777
      ],
      "min": [
        -4.2887802124023438,
        -5.0053400993347168,
        -2.0425500869750977
      ],
      "type": "VEC3"
    },
    {
      "bufferView": 1,
      "byteOffset": 85680,
      "componentType": 5126,
      "count": 2568,
      "max": [
        0.99971973896026611,
        0.99836164712905884,
        0.99840593338012695
      ],
      "min": [
        -0.99979394674301147,
        -0.99635607004165649,
        -0.99918335676193237
      ],
      "type": "VEC3"
    },
    {
      "bufferView": 0,
      "byteOffset": 9144,
      "componentType": 5125,
      "count": 2568,
      "max": [
        2567
      ],
      "min": [
        0
      ],
      "type": "SCALAR"
    },
    {
      "bufferView": 1,
      "byteOffset": 116496,
      "componentType": 5126,
      "count": 1542,
      "max": [
        2.0821599960327148,
        2.7333700656890869,
        1.1505500078201294
      ],
      "min": [
        -2.9123001098632812,
        -1.4181300401687622,
        -2.1572000980377197
      ],
      "type": "VEC3"
    },
    {
      "bufferView": 1,
      "byteOffset": 135000,
      "componentType": 5126,
      "count": 1542,
      "max": [
        0.99965929985046387,
        0.99941009283065796,
        0.99545228481292725
      ],
      "min": [
        -0.99995988607406616,
        -0.99461513757705688,
        -0.99912762641906738
      ],
      "type": "VEC3"
    },
    {
      "bufferView": 0,
      "byteOffset": 19416,
      "componentType": 5125,
      "count": 1908,
      "max": [
        1541
      ],
      "min": [
        0
      ],
      "type": "SCALAR"
    },
    {
      "bufferView": 1,
      "byteOffset": 153504,
      "componentType": 5126,
      "count": 2334,
      "max": [
        11.416620254516602,
        12.652469635009766,
        5.1217799186706543
      ],
      "min": [
        -9.5830001831054688,
        -6.5772600173950195,
        -5.5541501045227051
      ],
      "type": "VEC3"
    },
    {
      "bufferView": 1,
      "byteOffset": 181512,
      "componentType": 5126,
      "count": 2334,
      "max": [
        0.99818950891494751,
        0.99997782707214355,
        0.99821978807449341
      ],
      "min": [
        -0.99999153614044189,
        -0.9987943172454834,
        -0.9980546236038208
      ],
      "type": "VEC3"
    },
    {
      "bufferView": 0,
      "byteOffset": 27048,
      "componentType": 5125,
      "count": 2334,
      "max": [
        2333
      ],
      "min": [
        0
      ],
      "type": "SCALAR"
    },
    {
      "bufferView": 1,
      "byteOffset": 209520,
      "componentType": 5126,
      "count": 1194,
      "max": [
        0.079980000853538513,
        0.37318998575210571,
        0.34147998690605164
      ],
      "min": [
        -0.57665002346038818,
        -0.089649997651576996,
        -3.4234499931335449
      ],
      "type": "VEC3"
    },
    {
      "bufferView": 1,
      "byteOffset": 223848,
      "componentType": 5126,
      "count": 1194,
      "max": [
        0.99027180671691895,
        0.98736375570297241,
        0.94689011573791504
      ],
      "min": [
        -0.99929070472717285,
        -0.98787033557891846,
        -0.96196377277374268
      ],
      "type": "VEC3"
    },
    {
      "bufferView": 0,
      "byteOffset": 36384,
      "componentType": 5125,
      "count": 1782,
      "max": [
        1193
      ],
      "min": [
        0
      ],
      "type": "SCALAR"
    },
    {
      "bufferView": 1,
      "byteOffset": 238176,
      "componentType": 5126,
      "count": 768,
      "max": [
        1,
        3.2000000476837158,
        1
      ],
      "min": [
        -1,
        -1,
        -1
      ],
      "type": "VEC3"
    },
    {
      "bufferView": 1,
      "byteOffset": 247392,
      "componentType": 5126,
      "count": 768,
      "max": [
        1,
        1,
        1
      ],
      "min": [
        -1,
        -1,
        -1
      ],
      "type": "VEC3"
    },
    {
      "bufferView": 0,
      "byteOffset": 43512,
      "componentType": 5125,
      "count": 1128,
      "max": [
        767
      ],
      "min": [
        0
      ],
      "type": "SCALAR"
    },
    {
      "bufferView": 1,
      "byteOffset": 256608,
      "componentType": 5126,
      "count": 1542,
      "max": [
        21.750400543212891,
        41.994781494140625,
        -1.5419000387191772
      ],
      "min": [
        -39.544231414794922,
        5.5089101791381836,
        -5.9619598388671875
      ],
      "type": "VEC3"
    },
    {
      "bufferView": 1,
      "byteOffset": 275112,
      "componentType": 5126,
      "count": 1542,
      "max": [
        0.99968057870864868,
        0.99944883584976196,
        0.99545228481292725
      ],
      "min": [
        -0.99772465229034424,
        -0.997761070728302,
        -0.99912762641906738
      ],
      "type": "VEC3"
    },
    {
      "bufferView": 0,
      "byteOffset": 48024,
      "componentType": 5125,
      "count": 1908,
      "max": [
        1541
      ],
      "min": [
        0
      ],
      "type": "SCALAR"
    }
  ],
  "asset": {
    "extras": {
      "author": "Jaime Barrera (https://sketchfab.com/ThejaimeleRDF)",
      "license": "CC-BY-NC-4.0 (http://creativecommons.org/licenses/by-nc/4.0/)",
      "source": "https://sketchfab.com/models/cf328693f40c480288a4e2d02b6d191f",
      "title": "Swing World"
    },
    "generator": "Sketchfab-3.18.7",
    "version": "2.0"
  },
  "bufferViews": [
    {
      "buffer": 0,
      "byteLength": 55656,
      "byteOffset": 0,
      "name": "floatBufferViews",
      "target": 34963
    },
    {
      "buffer": 0,
      "byteLength": 293616,
      "byteOffset": 55656,
      "byteStride": 12,
      "name": "floatBufferViews",
      "target": 34962
    }
  ],
  "buffers": [
    {
      "byteLength": 349272,
      "uri": "scene.bin"
    }
  ],
  "materials": [
    {
      "doubleSided": true,
      "emissiveFactor": [
        0,
        0,
        0
      ],
      "name": "Material",
      "pbrMetallicRoughness": {
        "baseColorFactor": [
          0.19243392349999999,
          0.19243392349999999,
          0.19243392349999999,
          1
        ],
        "metallicFactor": 0,
        "roughnessFactor": 0.59999999999999998
      }
    },
    {
      "doubleSided": true,
      "emissiveFactor": [
        0,
        0,
        0
      ],
      "name": "Material.003",
      "pbrMetallicRoughness": {
        "baseColorFactor": [
          0.1531924009,
          0.093092650200000002,
          0.064277149699999994,
          1
        ],
        "metallicFactor": 0,
        "roughnessFactor": 0.59999999999999998
      }
    },
    {
      "doubleSided": true,
      "emissiveFactor": [
        0,
        0,
        0
      ],
      "name": "Material.005",
      "pbrMetallicRoughness": {
        "baseColorFactor": [
          0.47983703020000001,
          0.36302119490000001,
          0.22009538109999999,
          1
        ],
        "metallicFactor": 0,
        "roughnessFactor": 0.59999999999999998
      }
    },
    {
      "doubleSided": true,
      "emissiveFactor": [
        0,
        0,
        0
      ],
      "name": "Material.004",
      "pbrMetallicRoughness": {
        "baseColorFactor": [
          0.050347991299999999,
          0.15319202840000001,
          0.016387503599999999,
          1
        ],
        "metallicFactor": 0,
        "roughnessFactor": 0.59999999999999998
      }
    },
    {
      "doubleSided": true,
      "emissiveFactor": [
        0,
        0,
        0
      ],
      "name": "Material.001",
      "pbrMetallicRoughness": {
        "baseColorFactor": [
          0.15234705809999999,
          0.4878035188,
          0.10699458420000001,
          1
        ],
        "metallicFactor": 0,
        "roughnessFactor": 0.59999999999999998
      }
    },
    {
      "doubleSided": true,
      "emissiveFactor": [
        0,
        0,
        0
      ],
      "name": "Material.002",
      "pbrMetallicRoughness": {
        "baseColorFactor": [
          0.2115683407,
          0.16352325679999999,
          0.14966703949999999,
          1
        ],
        "metallicFactor": 0,
        "roughnessFactor": 0.59999999999999998
      }
    }
  ],
  "meshes": [
    {
      "name": "Cube_0",
      "primitives": [
        {
          "attributes": {
            "NORMAL": 1,
            "POSITION": 0
          },
          "indices": 2,
          "material": 4,
          "mode": 4
        }
      ]
    },
    {
      "name": "Cube_1",
      "primitives": [
        {
          "attributes": {
            "NORMAL": 4,
            "POSITION": 3
          },
          "indices": 5,
          "material": 5,
          "mode": 4
        }
      ]
    },
    {
      "name": "NurbsPath_0",
      "primitives": [
        {
          "attributes": {
            "NORMAL": 7,
            "POSITION": 6
          },
          "indices": 8,
          "material": 1,
          "mode": 4
        }
      ]
    },
    {
      "name": "Cube.002_0",
      "primitives": [
        {
          "attributes": {
            "NORMAL": 10,
            "POSITION": 9
          },
          "indices": 11,
          "material": 0,
          "mode": 4
        }
      ]
    },
    {
      "name": "Mball.019_0",
      "primitives": [
        {
          "attributes": {
            "NORMAL": 13,
            "POSITION": 12
          },
          "indices": 14,
          "material": 3,
          "mode": 4
        }
      ]
    },
    {
      "name": "NurbsPath.001_0",
      "primitives": [
        {
          "attributes": {
            "NORMAL": 16,
            "POSITION": 15
          },
          "indices": 17,
          "material": 2,
          "mode": 4
        }
      ]
    },
    {
      "name": "Cube.001_0",
      "primitives": [
        {
          "attributes": {
            "NORMAL": 19,
            "POSITION": 18
          },
          "indices": 20,
          "material": 1,
          "mode": 4
        }
      ]
    },
    {
      "name": "Cube.003_0",
      "primitives": [
        {
          "attributes": {
            "NORMAL": 22,
            "POSITION": 21
          },
          "indices": 23,
          "material": 0,
          "mode": 4
        }
      ]
    }
  ],
  "nodes": [
    {
      "children": [
        1
      ],
      "name": "RootNode (gltf orientation matrix)",
      "rotation": [
        -0.70710678118654746,
        -0,
        -0,
        0.70710678118654757
      ]
    },
    {
      "children": [
        2
      ],
      "name": "RootNode (model correction matrix)"
    },
    {
      "children": [
        3,
        5,
        8,
        10,
        12,
        14,
        16,
        18
      ],
      "name": "Root"
    },
    {
      "children": [
        4
      ],
      "matrix": [
        0.90132000000000001,
        0.42808000000000007,
        -0.066160000000000024,
        0,
        -0.23485,
        0.61128000000000005,
        0.7557600000000001,
        0,
        0.36397000000000007,
        -0.66564000000000023,
        0.65150000000000008,
        0,
        -5.6826099999999995,
        -6.0132300000000001,
        5.9038600000000008,
        1
      ],
      "name": "Lamp"
    },
    {
      "name": "Lamp"
    },
    {
      "children": [
        6,
        7
      ],
      "matrix": [
        3.0335999999999999,
        0,
        0,
        0,
        0,
        3.0335999999999999,
        0,
        0,
        0,
        0,
        3.0335999999999999,
        0,
        0,
        0,
        0,
        1
      ],
      "name": "Cube"
    },
    {
      "mesh": 0,
      "name": "Cube_0"
    },
    {
      "mesh": 1,
      "name": "Cube_1"
    },
    {
      "children": [
        9
      ],
      "matrix": [
        -0.70417000000000007,
        -0.71003000000000005,
        0,
        0,
        0.71003000000000005,
        -0.70417000000000007,
        0,
        0,
        0,
        0,
        1,
        0,
        1.95238,
        -0.69104000000000021,
        0.69233000000000011,
        1
      ],
      "name": "NurbsPath"
    },
    {
      "mesh": 2,
      "name": "NurbsPath_0"
    },
    {
      "children": [
        11
      ],
      "matrix": [
        -0.18508000000000002,
        -0.82320000000000004,
        0,
        0,
        0.79170000000000007,
        -0.17800000000000002,
        0,
        0,
        0,
        0,
        0.4483700000000001,
        0,
        1.0061100000000001,
        -0.50750999999999991,
        0.30632000000000009,
        1
      ],
      "name": "Cube.002"
    },
    {
      "mesh": 3,
      "name": "Cube.002_0"
    },
    {
      "children": [
        13
      ],
      "matrix": [
        0.42326000000000003,
        0.015990000000000004,
        0.071910000000000002,
        0,
        -0.011990000000000002,
        0.42874000000000001,
        -0.024740000000000002,
        0,
        -0.046130000000000018,
        0.014200000000000003,
        0.26838000000000006,
        0,
        2.0119999999999996,
        -1.96055,
        4.97811,
        1
      ],
      "name": "Mball.019"
    },
    {
      "mesh": 4,
      "name": "Mball.019_0"
    },
    {
      "children": [
        15
      ],
      "matrix": [
        1,
        0,
        0,
        0,
        0,
        1,
        0,
        0,
        0,
        0,
        1,
        0,
        -1.0170199999999998,
        1.7940900000000002,
        4.3819099999999995,
        1
      ],
      "name": "NurbsPath.001"
    },
    {
      "mesh": 5,
      "name": "NurbsPath.001_0"
    },
    {
      "children": [
        17
      ],
      "matrix": [
        0.38521000000000005,
        -0.15037,
        0,
        0,
        0.026720000000000004,
        0.068450000000000011,
        0,
        0,
        0,
        0,
        0.025350000000000008,
        0,
        -1.2909299999999999,
        1.8519699999999999,
        0.96830000000000005,
        1
      ],
      "name": "Cube.001"
    },
    {
      "mesh": 6,
      "name": "Cube.001_0"
    },
    {
      "children": [
        19
      ],
      "matrix": [
        -0.016050000000000005,
        -0.071370000000000003,
        0,
        0,
        0.06864000000000002,
        -0.015430000000000003,
        0,
        0,
        0,
        0,
        0.038870000000000009,
        0,
        -2.9575499999999999,
        -0.29976000000000003,
        0.24165,
        1
      ],
      "name": "Cube.003"
    },
    {
      "mesh": 7,
      "name": "Cube.003_0"
    }
  ],
  "scene": 0,
  "scenes": [
    {
      "name": "OSG_Scene",
      "nodes": [
        0
      ]
    }
  ]
}

